<?xml version="1.0" encoding="UTF-8" standalone="no"?>
<!DOCTYPE svg PUBLIC "-//W3C//DTD SVG 1.1//EN" "http://www.w3.org/Graphics/SVG/1.1/DTD/svg11.dtd">
<svg width="100%" height="100%" viewBox="0 0 414 39" version="1.1" xmlns="http://www.w3.org/2000/svg" xmlns:xlink="http://www.w3.org/1999/xlink" xml:space="preserve" xmlns:serif="http://www.serif.com/" style="fill-rule:evenodd;clip-rule:evenodd;stroke-linejoin:round;stroke-miterlimit:2;">
    <g transform="matrix(0.947717,0,0,1.02638,-451.178,-669.486)">
        <path d="M911.857,661.701L911.857,680.546C911.857,685.746 907.284,689.968 901.652,689.968L486.273,689.968C480.641,689.968 476.069,685.746 476.069,680.546L476.069,661.701C476.069,656.5 480.641,652.278 486.273,652.278L901.652,652.278C907.284,652.278 911.857,656.5 911.857,661.701Z" style="fill:rgb(242,5,48);"/>
    </g>
    <g transform="matrix(0.619777,0,0,0.619777,-290.302,-395.056)">
        <g transform="matrix(51.8702,0,0,51.8702,485.89,687.186)">
            <path d="M0.015,-0.7L0.121,-0.7L0.17,-0.162L0.172,-0.162L0.224,-0.7L0.344,-0.7L0.396,-0.162L0.398,-0.162L0.447,-0.7L0.542,-0.7L0.471,-0L0.334,-0L0.284,-0.472L0.282,-0.472L0.232,-0L0.086,-0L0.015,-0.7Z" style="fill:white;fill-rule:nonzero;"/>
        </g>
        <g transform="matrix(51.8702,0,0,51.8702,514.782,687.186)">
            <rect x="0.041" y="-0.7" width="0.11" height="0.7" style="fill:white;fill-rule:nonzero;"/>
        </g>
        <g transform="matrix(51.8702,0,0,51.8702,524.741,687.186)">
            <path d="M0.041,-0.7L0.204,-0.7C0.261,-0.7 0.302,-0.687 0.328,-0.661C0.354,-0.634 0.367,-0.594 0.367,-0.539L0.367,-0.496C0.367,-0.423 0.343,-0.377 0.295,-0.358L0.295,-0.356C0.322,-0.348 0.341,-0.332 0.352,-0.307C0.363,-0.282 0.368,-0.249 0.368,-0.208L0.368,-0.085C0.368,-0.065 0.369,-0.049 0.37,-0.037C0.371,-0.024 0.375,-0.012 0.38,-0L0.268,-0C0.264,-0.011 0.261,-0.022 0.26,-0.032C0.259,-0.042 0.258,-0.06 0.258,-0.086L0.258,-0.214C0.258,-0.246 0.253,-0.268 0.243,-0.281C0.232,-0.294 0.214,-0.3 0.189,-0.3L0.151,-0.3L0.151,-0L0.041,-0L0.041,-0.7ZM0.191,-0.4C0.213,-0.4 0.23,-0.406 0.241,-0.417C0.252,-0.428 0.257,-0.447 0.257,-0.474L0.257,-0.528C0.257,-0.553 0.253,-0.572 0.244,-0.583C0.235,-0.594 0.22,-0.6 0.201,-0.6L0.151,-0.6L0.151,-0.4L0.191,-0.4Z" style="fill:white;fill-rule:nonzero;"/>
        </g>
        <g transform="matrix(51.8702,0,0,51.8702,553.944,687.186)">
            <path d="M0.041,-0.7L0.207,-0.7C0.264,-0.7 0.305,-0.687 0.331,-0.661C0.357,-0.634 0.37,-0.594 0.37,-0.539L0.37,-0.511C0.37,-0.475 0.364,-0.446 0.353,-0.423C0.341,-0.4 0.323,-0.384 0.299,-0.374L0.299,-0.372C0.354,-0.353 0.381,-0.305 0.381,-0.226L0.381,-0.166C0.381,-0.112 0.367,-0.071 0.339,-0.043C0.31,-0.014 0.269,-0 0.214,-0L0.041,-0L0.041,-0.7ZM0.194,-0.415C0.216,-0.415 0.233,-0.421 0.244,-0.432C0.255,-0.443 0.26,-0.462 0.26,-0.489L0.26,-0.528C0.26,-0.553 0.256,-0.572 0.247,-0.583C0.238,-0.594 0.223,-0.6 0.204,-0.6L0.151,-0.6L0.151,-0.415L0.194,-0.415ZM0.214,-0.1C0.233,-0.1 0.248,-0.105 0.257,-0.116C0.266,-0.126 0.271,-0.144 0.271,-0.169L0.271,-0.23C0.271,-0.262 0.266,-0.284 0.255,-0.297C0.244,-0.309 0.225,-0.315 0.2,-0.315L0.151,-0.315L0.151,-0.1L0.214,-0.1Z" style="fill:white;fill-rule:nonzero;"/>
        </g>
        <g transform="matrix(51.8702,0,0,51.8702,574.9,687.186)">
            <path d="M0.041,-0.7L0.341,-0.7L0.341,-0.6L0.151,-0.6L0.151,-0.415L0.302,-0.415L0.302,-0.315L0.151,-0.315L0.151,-0.1L0.341,-0.1L0.341,-0L0.041,-0L0.041,-0.7Z" style="fill:white;fill-rule:nonzero;"/>
        </g>
        <g transform="matrix(51.8702,0,0,51.8702,593.729,687.186)">
            <path d="M0.197,0.01C0.144,0.01 0.103,-0.005 0.075,-0.036C0.047,-0.066 0.033,-0.109 0.033,-0.166L0.033,-0.534C0.033,-0.591 0.047,-0.634 0.075,-0.665C0.103,-0.695 0.144,-0.71 0.197,-0.71C0.25,-0.71 0.291,-0.695 0.319,-0.665C0.347,-0.634 0.361,-0.591 0.361,-0.534L0.361,-0.474L0.257,-0.474L0.257,-0.541C0.257,-0.587 0.238,-0.61 0.2,-0.61C0.162,-0.61 0.143,-0.587 0.143,-0.541L0.143,-0.158C0.143,-0.113 0.162,-0.09 0.2,-0.09C0.238,-0.09 0.257,-0.113 0.257,-0.158L0.257,-0.295L0.202,-0.295L0.202,-0.395L0.361,-0.395L0.361,-0.166C0.361,-0.109 0.347,-0.066 0.319,-0.036C0.291,-0.005 0.25,0.01 0.197,0.01Z" style="fill:white;fill-rule:nonzero;"/>
        </g>
        <g transform="matrix(51.8702,0,0,51.8702,614.01,687.186)">
            <path d="M0.041,-0.7L0.341,-0.7L0.341,-0.6L0.151,-0.6L0.151,-0.415L0.302,-0.415L0.302,-0.315L0.151,-0.315L0.151,-0.1L0.341,-0.1L0.341,-0L0.041,-0L0.041,-0.7Z" style="fill:white;fill-rule:nonzero;"/>
        </g>
        <g transform="matrix(51.8702,0,0,51.8702,632.839,687.186)">
            <rect x="0.041" y="-0.7" width="0.11" height="0.7" style="fill:white;fill-rule:nonzero;"/>
        </g>
        <g transform="matrix(51.8702,0,0,51.8702,642.798,687.186)">
            <path d="M0.184,0.01C0.131,0.01 0.09,-0.005 0.063,-0.036C0.036,-0.066 0.022,-0.109 0.022,-0.166L0.022,-0.206L0.126,-0.206L0.126,-0.158C0.126,-0.113 0.145,-0.09 0.183,-0.09C0.202,-0.09 0.216,-0.095 0.226,-0.107C0.235,-0.117 0.24,-0.135 0.24,-0.16C0.24,-0.189 0.233,-0.215 0.22,-0.238C0.207,-0.26 0.182,-0.287 0.146,-0.318C0.101,-0.358 0.069,-0.394 0.051,-0.427C0.033,-0.459 0.024,-0.495 0.024,-0.536C0.024,-0.591 0.038,-0.634 0.066,-0.665C0.094,-0.695 0.135,-0.71 0.188,-0.71C0.241,-0.71 0.281,-0.695 0.308,-0.665C0.335,-0.634 0.348,-0.591 0.348,-0.534L0.348,-0.505L0.244,-0.505L0.244,-0.541C0.244,-0.565 0.239,-0.583 0.23,-0.594C0.221,-0.604 0.207,-0.61 0.189,-0.61C0.152,-0.61 0.134,-0.588 0.134,-0.543C0.134,-0.518 0.141,-0.494 0.155,-0.472C0.168,-0.45 0.193,-0.423 0.229,-0.392C0.275,-0.352 0.307,-0.316 0.324,-0.283C0.341,-0.25 0.35,-0.212 0.35,-0.168C0.35,-0.111 0.336,-0.067 0.308,-0.036C0.279,-0.005 0.238,0.01 0.184,0.01Z" style="fill:white;fill-rule:nonzero;"/>
        </g>
        <g transform="matrix(51.8702,0,0,51.8702,662.094,687.186)">
            <path d="M0.127,-0.6L0.012,-0.6L0.012,-0.7L0.352,-0.7L0.352,-0.6L0.237,-0.6L0.237,-0L0.127,-0L0.127,-0.6Z" style="fill:white;fill-rule:nonzero;"/>
        </g>
        <g transform="matrix(51.8702,0,0,51.8702,680.974,687.186)">
            <path d="M0.041,-0.7L0.341,-0.7L0.341,-0.6L0.151,-0.6L0.151,-0.415L0.302,-0.415L0.302,-0.315L0.151,-0.315L0.151,-0.1L0.341,-0.1L0.341,-0L0.041,-0L0.041,-0.7Z" style="fill:white;fill-rule:nonzero;"/>
        </g>
        <g transform="matrix(51.8702,0,0,51.8702,699.803,687.186)">
            <path d="M0.041,-0.7L0.204,-0.7C0.261,-0.7 0.302,-0.687 0.328,-0.661C0.354,-0.634 0.367,-0.594 0.367,-0.539L0.367,-0.496C0.367,-0.423 0.343,-0.377 0.295,-0.358L0.295,-0.356C0.322,-0.348 0.341,-0.332 0.352,-0.307C0.363,-0.282 0.368,-0.249 0.368,-0.208L0.368,-0.085C0.368,-0.065 0.369,-0.049 0.37,-0.037C0.371,-0.024 0.375,-0.012 0.38,-0L0.268,-0C0.264,-0.011 0.261,-0.022 0.26,-0.032C0.259,-0.042 0.258,-0.06 0.258,-0.086L0.258,-0.214C0.258,-0.246 0.253,-0.268 0.243,-0.281C0.232,-0.294 0.214,-0.3 0.189,-0.3L0.151,-0.3L0.151,-0L0.041,-0L0.041,-0.7ZM0.191,-0.4C0.213,-0.4 0.23,-0.406 0.241,-0.417C0.252,-0.428 0.257,-0.447 0.257,-0.474L0.257,-0.528C0.257,-0.553 0.253,-0.572 0.244,-0.583C0.235,-0.594 0.22,-0.6 0.201,-0.6L0.151,-0.6L0.151,-0.4L0.191,-0.4Z" style="fill:white;fill-rule:nonzero;"/>
        </g>
        <g transform="matrix(51.8702,0,0,51.8702,720.707,687.186)">
            <path d="M0.041,-0.7L0.179,-0.7L0.286,-0.281L0.288,-0.281L0.288,-0.7L0.386,-0.7L0.386,-0L0.273,-0L0.141,-0.511L0.139,-0.511L0.139,-0L0.041,-0L0.041,-0.7Z" style="fill:white;fill-rule:nonzero;"/>
        </g>
        <g transform="matrix(51.8702,0,0,51.8702,751.155,687.186)">
            <path d="M0.041,-0.7L0.198,-0.7L0.268,-0.199L0.27,-0.199L0.34,-0.7L0.497,-0.7L0.497,-0L0.393,-0L0.393,-0.53L0.391,-0.53L0.311,-0L0.219,-0L0.139,-0.53L0.137,-0.53L0.137,-0L0.041,-0L0.041,-0.7Z" style="fill:white;fill-rule:nonzero;"/>
        </g>
        <g transform="matrix(51.8702,0,0,51.8702,779.061,687.186)">
            <path d="M0.041,-0.7L0.341,-0.7L0.341,-0.6L0.151,-0.6L0.151,-0.415L0.302,-0.415L0.302,-0.315L0.151,-0.315L0.151,-0.1L0.341,-0.1L0.341,-0L0.041,-0L0.041,-0.7Z" style="fill:white;fill-rule:nonzero;"/>
        </g>
        <g transform="matrix(51.8702,0,0,51.8702,797.89,687.186)">
            <path d="M0.041,-0.7L0.179,-0.7L0.286,-0.281L0.288,-0.281L0.288,-0.7L0.386,-0.7L0.386,-0L0.273,-0L0.141,-0.511L0.139,-0.511L0.139,-0L0.041,-0L0.041,-0.7Z" style="fill:white;fill-rule:nonzero;"/>
        </g>
        <g transform="matrix(51.8702,0,0,51.8702,820.038,687.186)">
            <path d="M0.184,0.01C0.131,0.01 0.09,-0.005 0.063,-0.036C0.036,-0.066 0.022,-0.109 0.022,-0.166L0.022,-0.206L0.126,-0.206L0.126,-0.158C0.126,-0.113 0.145,-0.09 0.183,-0.09C0.202,-0.09 0.216,-0.095 0.226,-0.107C0.235,-0.117 0.24,-0.135 0.24,-0.16C0.24,-0.189 0.233,-0.215 0.22,-0.238C0.207,-0.26 0.182,-0.287 0.146,-0.318C0.101,-0.358 0.069,-0.394 0.051,-0.427C0.033,-0.459 0.024,-0.495 0.024,-0.536C0.024,-0.591 0.038,-0.634 0.066,-0.665C0.094,-0.695 0.135,-0.71 0.188,-0.71C0.241,-0.71 0.281,-0.695 0.308,-0.665C0.335,-0.634 0.348,-0.591 0.348,-0.534L0.348,-0.505L0.244,-0.505L0.244,-0.541C0.244,-0.565 0.239,-0.583 0.23,-0.594C0.221,-0.604 0.207,-0.61 0.189,-0.61C0.152,-0.61 0.134,-0.588 0.134,-0.543C0.134,-0.518 0.141,-0.494 0.155,-0.472C0.168,-0.45 0.193,-0.423 0.229,-0.392C0.275,-0.352 0.307,-0.316 0.324,-0.283C0.341,-0.25 0.35,-0.212 0.35,-0.168C0.35,-0.111 0.336,-0.067 0.308,-0.036C0.279,-0.005 0.238,0.01 0.184,0.01Z" style="fill:white;fill-rule:nonzero;"/>
        </g>
        <g transform="matrix(51.8702,0,0,51.8702,839.334,687.186)">
            <path d="M0.196,0.01C0.143,0.01 0.103,-0.005 0.076,-0.035C0.048,-0.065 0.034,-0.107 0.034,-0.162L0.034,-0.538C0.034,-0.593 0.048,-0.635 0.076,-0.665C0.103,-0.695 0.143,-0.71 0.196,-0.71C0.249,-0.71 0.289,-0.695 0.317,-0.665C0.344,-0.635 0.358,-0.593 0.358,-0.538L0.358,-0.464L0.254,-0.464L0.254,-0.545C0.254,-0.588 0.236,-0.61 0.199,-0.61C0.162,-0.61 0.144,-0.588 0.144,-0.545L0.144,-0.154C0.144,-0.111 0.162,-0.09 0.199,-0.09C0.236,-0.09 0.254,-0.111 0.254,-0.154L0.254,-0.261L0.358,-0.261L0.358,-0.162C0.358,-0.107 0.344,-0.065 0.317,-0.035C0.289,-0.005 0.249,0.01 0.196,0.01Z" style="fill:white;fill-rule:nonzero;"/>
        </g>
        <g transform="matrix(51.8702,0,0,51.8702,859.2,687.186)">
            <path d="M0.041,-0.7L0.151,-0.7L0.151,-0.415L0.269,-0.415L0.269,-0.7L0.379,-0.7L0.379,-0L0.269,-0L0.269,-0.315L0.151,-0.315L0.151,-0L0.041,-0L0.041,-0.7Z" style="fill:white;fill-rule:nonzero;"/>
        </g>
        <g transform="matrix(51.8702,0,0,51.8702,880.986,687.186)">
            <path d="M0.041,-0.7L0.341,-0.7L0.341,-0.6L0.151,-0.6L0.151,-0.415L0.302,-0.415L0.302,-0.315L0.151,-0.315L0.151,-0.1L0.341,-0.1L0.341,-0L0.041,-0L0.041,-0.7Z" style="fill:white;fill-rule:nonzero;"/>
        </g>
        <g transform="matrix(51.8702,0,0,51.8702,899.815,687.186)">
            <path d="M0.041,-0.7L0.179,-0.7L0.286,-0.281L0.288,-0.281L0.288,-0.7L0.386,-0.7L0.386,-0L0.273,-0L0.141,-0.511L0.139,-0.511L0.139,-0L0.041,-0L0.041,-0.7Z" style="fill:white;fill-rule:nonzero;"/>
        </g>
        <g transform="matrix(51.8702,0,0,51.8702,930.263,687.186)">
            <path d="M0.041,-0.7L0.332,-0.7L0.332,-0.6L0.151,-0.6L0.151,-0.405L0.293,-0.405L0.293,-0.305L0.151,-0.305L0.151,-0L0.041,-0L0.041,-0.7Z" style="fill:white;fill-rule:nonzero;"/>
        </g>
        <g transform="matrix(51.8702,0,0,51.8702,948.106,687.186)">
            <path d="M0.201,0.01C0.148,0.01 0.107,-0.005 0.079,-0.036C0.051,-0.066 0.037,-0.109 0.037,-0.166L0.037,-0.7L0.147,-0.7L0.147,-0.158C0.147,-0.134 0.152,-0.117 0.162,-0.106C0.171,-0.095 0.185,-0.09 0.203,-0.09C0.221,-0.09 0.235,-0.095 0.245,-0.106C0.254,-0.117 0.259,-0.134 0.259,-0.158L0.259,-0.7L0.365,-0.7L0.365,-0.166C0.365,-0.109 0.351,-0.066 0.323,-0.036C0.295,-0.005 0.254,0.01 0.201,0.01ZM0.075,-0.849L0.173,-0.849L0.173,-0.747L0.075,-0.747L0.075,-0.849ZM0.229,-0.849L0.327,-0.849L0.327,-0.747L0.229,-0.747L0.229,-0.849Z" style="fill:white;fill-rule:nonzero;"/>
        </g>
        <g transform="matrix(51.8702,0,0,51.8702,968.958,687.186)">
            <path d="M0.041,-0.7L0.204,-0.7C0.261,-0.7 0.302,-0.687 0.328,-0.661C0.354,-0.634 0.367,-0.594 0.367,-0.539L0.367,-0.496C0.367,-0.423 0.343,-0.377 0.295,-0.358L0.295,-0.356C0.322,-0.348 0.341,-0.332 0.352,-0.307C0.363,-0.282 0.368,-0.249 0.368,-0.208L0.368,-0.085C0.368,-0.065 0.369,-0.049 0.37,-0.037C0.371,-0.024 0.375,-0.012 0.38,-0L0.268,-0C0.264,-0.011 0.261,-0.022 0.26,-0.032C0.259,-0.042 0.258,-0.06 0.258,-0.086L0.258,-0.214C0.258,-0.246 0.253,-0.268 0.243,-0.281C0.232,-0.294 0.214,-0.3 0.189,-0.3L0.151,-0.3L0.151,-0L0.041,-0L0.041,-0.7ZM0.191,-0.4C0.213,-0.4 0.23,-0.406 0.241,-0.417C0.252,-0.428 0.257,-0.447 0.257,-0.474L0.257,-0.528C0.257,-0.553 0.253,-0.572 0.244,-0.583C0.235,-0.594 0.22,-0.6 0.201,-0.6L0.151,-0.6L0.151,-0.4L0.191,-0.4Z" style="fill:white;fill-rule:nonzero;"/>
        </g>
        <g transform="matrix(51.8702,0,0,51.8702,998.161,687.186)">
            <path d="M0.041,-0.7L0.198,-0.7L0.268,-0.199L0.27,-0.199L0.34,-0.7L0.497,-0.7L0.497,-0L0.393,-0L0.393,-0.53L0.391,-0.53L0.311,-0L0.219,-0L0.139,-0.53L0.137,-0.53L0.137,-0L0.041,-0L0.041,-0.7Z" style="fill:white;fill-rule:nonzero;"/>
        </g>
        <g transform="matrix(51.8702,0,0,51.8702,1026.07,687.186)">
            <path d="M0.041,-0.7L0.341,-0.7L0.341,-0.6L0.151,-0.6L0.151,-0.415L0.302,-0.415L0.302,-0.315L0.151,-0.315L0.151,-0.1L0.341,-0.1L0.341,-0L0.041,-0L0.041,-0.7Z" style="fill:white;fill-rule:nonzero;"/>
        </g>
        <g transform="matrix(51.8702,0,0,51.8702,1044.9,687.186)">
            <path d="M0.041,-0.7L0.209,-0.7C0.264,-0.7 0.305,-0.685 0.332,-0.656C0.359,-0.627 0.373,-0.584 0.373,-0.527L0.373,-0.173C0.373,-0.116 0.359,-0.073 0.332,-0.044C0.305,-0.015 0.264,-0 0.209,-0L0.041,-0L0.041,-0.7ZM0.207,-0.1C0.225,-0.1 0.239,-0.105 0.249,-0.116C0.258,-0.127 0.263,-0.144 0.263,-0.168L0.263,-0.532C0.263,-0.556 0.258,-0.573 0.249,-0.584C0.239,-0.595 0.225,-0.6 0.207,-0.6L0.151,-0.6L0.151,-0.1L0.207,-0.1Z" style="fill:white;fill-rule:nonzero;"/>
        </g>
        <g transform="matrix(51.8702,0,0,51.8702,1065.96,687.186)">
            <rect x="0.041" y="-0.7" width="0.11" height="0.7" style="fill:white;fill-rule:nonzero;"/>
        </g>
        <g transform="matrix(51.8702,0,0,51.8702,1075.91,687.186)">
            <path d="M0.041,-0.7L0.341,-0.7L0.341,-0.6L0.151,-0.6L0.151,-0.415L0.302,-0.415L0.302,-0.315L0.151,-0.315L0.151,-0.1L0.341,-0.1L0.341,-0L0.041,-0L0.041,-0.7Z" style="fill:white;fill-rule:nonzero;"/>
        </g>
        <g transform="matrix(51.8702,0,0,51.8702,1094.74,687.186)">
            <path d="M0.041,-0.7L0.179,-0.7L0.286,-0.281L0.288,-0.281L0.288,-0.7L0.386,-0.7L0.386,-0L0.273,-0L0.141,-0.511L0.139,-0.511L0.139,-0L0.041,-0L0.041,-0.7Z" style="fill:white;fill-rule:nonzero;"/>
        </g>
    </g>
</svg>