<?xml version="1.0" encoding="UTF-8" standalone="no"?>
<!DOCTYPE svg PUBLIC "-//W3C//DTD SVG 1.1//EN" "http://www.w3.org/Graphics/SVG/1.1/DTD/svg11.dtd">
<svg width="100%" height="100%" viewBox="0 0 754 105" version="1.1" xmlns="http://www.w3.org/2000/svg" xmlns:xlink="http://www.w3.org/1999/xlink" xml:space="preserve" xmlns:serif="http://www.serif.com/" style="fill-rule:evenodd;clip-rule:evenodd;stroke-linejoin:round;stroke-miterlimit:2;">
    <g transform="matrix(0.835283,0,0,0.906199,-8.06658,11.2483)">
        <g>
            <g transform="matrix(138.633,0,0,138.633,1.618,101.496)">
                <path d="M0.06,-0L0.06,-0.81L0.41,-0.81L0.41,-0.689L0.239,-0.689L0.239,-0.485L0.388,-0.485L0.388,-0.36L0.239,-0.36L0.239,-0L0.06,-0Z" style="fill:white;fill-rule:nonzero;"/>
            </g>
            <g transform="matrix(1,0,0,1,53.329,101.496)">
                <g transform="matrix(138.633,0,0,138.633,0,0)">
                    <path d="M0.021,-0L0.174,-0.81L0.378,-0.81L0.529,-0L0.364,-0L0.337,-0.171L0.218,-0.171L0.19,-0L0.021,-0ZM0.234,-0.278L0.32,-0.278L0.277,-0.594L0.234,-0.278Z" style="fill:white;fill-rule:nonzero;"/>
                </g>
                <g transform="matrix(138.633,0,0,138.633,68.2074,0)">
                    <path d="M0.06,-0L0.06,-0.81L0.239,-0.81L0.239,-0.479L0.375,-0.81L0.55,-0.81L0.4,-0.444L0.557,-0L0.375,-0L0.258,-0.358L0.239,-0.326L0.239,-0L0.06,-0Z" style="fill:white;fill-rule:nonzero;"/>
                </g>
            </g>
        </g>
        <g transform="matrix(1,0,0,1,202.289,101.496)">
            <g transform="matrix(138.633,0,0,138.633,0,0)">
                <path d="M0.133,-0L0.133,-0.677L0.011,-0.677L0.011,-0.81L0.434,-0.81L0.434,-0.677L0.313,-0.677L0.313,-0L0.133,-0Z" style="fill:white;fill-rule:nonzero;"/>
            </g>
            <g transform="matrix(138.633,0,0,138.633,57.2554,0)">
                <path d="M0.292,0.012C0.231,0.012 0.183,0.001 0.148,-0.02C0.113,-0.041 0.087,-0.072 0.072,-0.112C0.057,-0.152 0.049,-0.2 0.049,-0.255L0.049,-0.556C0.049,-0.612 0.057,-0.66 0.072,-0.699C0.087,-0.738 0.113,-0.769 0.148,-0.79C0.183,-0.811 0.231,-0.821 0.292,-0.821C0.353,-0.821 0.402,-0.811 0.438,-0.79C0.473,-0.769 0.499,-0.738 0.514,-0.699C0.529,-0.66 0.537,-0.612 0.537,-0.556L0.537,-0.255C0.537,-0.2 0.529,-0.152 0.514,-0.112C0.499,-0.072 0.473,-0.041 0.438,-0.02C0.402,0.001 0.353,0.012 0.292,0.012ZM0.292,-0.115C0.311,-0.115 0.324,-0.12 0.333,-0.129C0.342,-0.138 0.347,-0.15 0.35,-0.165C0.353,-0.18 0.354,-0.195 0.354,-0.21L0.354,-0.6C0.354,-0.616 0.353,-0.631 0.35,-0.646C0.347,-0.66 0.342,-0.672 0.333,-0.681C0.324,-0.69 0.311,-0.695 0.292,-0.695C0.275,-0.695 0.262,-0.69 0.253,-0.681C0.244,-0.672 0.239,-0.66 0.236,-0.646C0.233,-0.631 0.232,-0.616 0.232,-0.6L0.232,-0.21C0.232,-0.195 0.233,-0.18 0.236,-0.165C0.238,-0.15 0.243,-0.138 0.252,-0.129C0.26,-0.12 0.273,-0.115 0.292,-0.115Z" style="fill:white;fill-rule:nonzero;"/>
            </g>
            <g transform="matrix(138.633,0,0,138.633,131.979,0)">
                <path d="M0.06,-0L0.06,-0.81L0.283,-0.81C0.338,-0.81 0.385,-0.804 0.425,-0.792C0.465,-0.78 0.496,-0.759 0.519,-0.728C0.541,-0.697 0.552,-0.653 0.552,-0.596C0.552,-0.563 0.549,-0.533 0.544,-0.507C0.539,-0.481 0.529,-0.459 0.515,-0.44C0.5,-0.421 0.48,-0.405 0.453,-0.392L0.564,-0L0.379,-0L0.29,-0.363L0.239,-0.363L0.239,-0L0.06,-0ZM0.239,-0.466L0.289,-0.466C0.314,-0.466 0.334,-0.471 0.348,-0.48C0.362,-0.489 0.372,-0.501 0.378,-0.519C0.383,-0.536 0.386,-0.556 0.386,-0.58C0.386,-0.615 0.38,-0.642 0.367,-0.661C0.354,-0.68 0.331,-0.69 0.297,-0.69L0.239,-0.69L0.239,-0.466Z" style="fill:white;fill-rule:nonzero;"/>
            </g>
        </g>
        <g transform="matrix(1,0,0,1,476.031,101.496)">
            <g transform="matrix(138.633,0,0,138.633,0,0)">
                <path d="M0.057,-0L0.054,-0.81L0.263,-0.81L0.352,-0.339L0.448,-0.81L0.655,-0.81L0.651,0L0.503,0L0.505,-0.42L0.411,-0L0.298,-0L0.198,-0.424L0.203,0L0.057,-0Z" style="fill:white;fill-rule:nonzero;"/>
            </g>
            <g transform="matrix(138.633,0,0,138.633,91.4978,0)">
                <path d="M0.06,-0L0.06,-0.81L0.424,-0.81L0.424,-0.688L0.239,-0.688L0.239,-0.487L0.38,-0.487L0.38,-0.363L0.239,-0.363L0.239,-0.121L0.426,-0.121L0.426,-0L0.06,-0Z" style="fill:white;fill-rule:nonzero;"/>
            </g>
            <g transform="matrix(138.633,0,0,138.633,147.921,0)">
                <path d="M0.06,-0L0.06,-0.81L0.186,-0.81L0.352,-0.42L0.352,-0.81L0.5,-0.81L0.5,-0L0.379,-0L0.213,-0.42L0.213,-0L0.06,-0Z" style="fill:white;fill-rule:nonzero;"/>
            </g>
            <g transform="matrix(138.633,0,0,138.633,221.12,0)">
                <path d="M0.275,0.012C0.224,0.012 0.182,0.003 0.148,-0.015C0.114,-0.033 0.088,-0.061 0.071,-0.099C0.054,-0.136 0.044,-0.185 0.042,-0.245L0.195,-0.246C0.197,-0.221 0.2,-0.206 0.205,-0.184C0.21,-0.163 0.218,-0.147 0.229,-0.138C0.239,-0.129 0.251,-0.124 0.266,-0.124C0.285,-0.124 0.297,-0.13 0.303,-0.143C0.308,-0.156 0.311,-0.169 0.311,-0.183C0.311,-0.216 0.303,-0.245 0.287,-0.268C0.271,-0.291 0.249,-0.314 0.222,-0.337L0.152,-0.398C0.121,-0.424 0.095,-0.454 0.075,-0.487C0.054,-0.52 0.043,-0.56 0.043,-0.609C0.043,-0.678 0.063,-0.73 0.104,-0.767C0.145,-0.803 0.2,-0.821 0.27,-0.821C0.313,-0.821 0.348,-0.814 0.375,-0.799C0.401,-0.784 0.421,-0.765 0.435,-0.742C0.448,-0.718 0.458,-0.693 0.463,-0.667C0.468,-0.64 0.47,-0.615 0.471,-0.591L0.317,-0.591C0.316,-0.605 0.314,-0.619 0.313,-0.635C0.31,-0.652 0.305,-0.666 0.298,-0.676C0.291,-0.685 0.279,-0.69 0.264,-0.69C0.247,-0.69 0.235,-0.683 0.228,-0.669C0.22,-0.655 0.216,-0.641 0.216,-0.627C0.216,-0.597 0.223,-0.572 0.238,-0.554C0.252,-0.535 0.271,-0.515 0.294,-0.494L0.361,-0.435C0.396,-0.405 0.426,-0.371 0.451,-0.333C0.475,-0.295 0.487,-0.248 0.487,-0.192C0.487,-0.154 0.478,-0.12 0.461,-0.089C0.444,-0.057 0.419,-0.033 0.388,-0.015C0.356,0.003 0.318,0.012 0.275,0.012Z" style="fill:white;fill-rule:nonzero;"/>
            </g>
            <g transform="matrix(138.633,0,0,138.633,286.693,0)">
                <path d="M0.292,0.012C0.231,0.012 0.182,0.001 0.147,-0.022C0.111,-0.044 0.086,-0.075 0.071,-0.116C0.056,-0.156 0.049,-0.203 0.049,-0.258L0.049,-0.55C0.049,-0.606 0.056,-0.654 0.071,-0.695C0.086,-0.735 0.111,-0.766 0.147,-0.788C0.182,-0.81 0.231,-0.821 0.292,-0.821C0.352,-0.821 0.399,-0.811 0.433,-0.792C0.466,-0.772 0.49,-0.744 0.504,-0.709C0.518,-0.674 0.525,-0.633 0.525,-0.587L0.525,-0.517L0.35,-0.517L0.35,-0.598C0.35,-0.614 0.349,-0.629 0.348,-0.644C0.346,-0.659 0.341,-0.671 0.333,-0.681C0.325,-0.69 0.311,-0.695 0.292,-0.695C0.273,-0.695 0.26,-0.69 0.251,-0.68C0.242,-0.67 0.236,-0.658 0.234,-0.643C0.231,-0.627 0.23,-0.612 0.23,-0.595L0.23,-0.214C0.23,-0.196 0.232,-0.18 0.235,-0.165C0.238,-0.15 0.244,-0.138 0.253,-0.129C0.262,-0.12 0.275,-0.115 0.292,-0.115C0.311,-0.115 0.324,-0.12 0.332,-0.13C0.34,-0.139 0.345,-0.152 0.347,-0.167C0.349,-0.182 0.35,-0.198 0.35,-0.214L0.35,-0.299L0.525,-0.299L0.525,-0.229C0.525,-0.183 0.518,-0.142 0.505,-0.106C0.491,-0.069 0.467,-0.041 0.434,-0.02C0.4,0.002 0.353,0.012 0.292,0.012Z" style="fill:white;fill-rule:nonzero;"/>
            </g>
            <g transform="matrix(138.633,0,0,138.633,358.089,0)">
                <path d="M0.063,-0L0.063,-0.81L0.242,-0.81L0.242,-0.482L0.367,-0.482L0.367,-0.81L0.547,-0.81L0.547,-0L0.367,-0L0.367,-0.354L0.242,-0.354L0.242,-0L0.063,-0Z" style="fill:white;fill-rule:nonzero;"/>
            </g>
        </g>
    </g>
    <g>
        <g transform="matrix(0.565603,-0.565603,0.80553,0.80553,114.452,212.524)">
            <rect x="349.596" y="33.482" width="16.885" height="51.194" style="fill:rgb(232,136,19);"/>
        </g>
        <g transform="matrix(0.565603,0.565603,-0.80553,0.80553,209.632,-192.491)">
            <rect x="349.596" y="33.482" width="16.885" height="51.194" style="fill:rgb(232,136,19);"/>
        </g>
    </g>
</svg>