<?xml version="1.0" encoding="UTF-8" standalone="no"?>
<!DOCTYPE svg PUBLIC "-//W3C//DTD SVG 1.1//EN" "http://www.w3.org/Graphics/SVG/1.1/DTD/svg11.dtd">
<svg width="100%" height="100%" viewBox="0 0 1513 389" version="1.1" xmlns="http://www.w3.org/2000/svg" xmlns:xlink="http://www.w3.org/1999/xlink" xml:space="preserve" xmlns:serif="http://www.serif.com/" style="fill-rule:evenodd;clip-rule:evenodd;stroke-linejoin:round;stroke-miterlimit:2;">
    <g transform="matrix(0.633242,0,0,0.232726,0,0)">
        <rect id="Artboard1" x="0" y="0" width="2388" height="1668" style="fill:none;"/>
        <g id="Artboard11" serif:id="Artboard1">
            <g transform="matrix(2.63812,0,0,7.7877,-18.6978,98.636)">
                <g transform="matrix(138.633,0,0,138.633,1.618,101.496)">
                    <path d="M0.06,-0L0.06,-0.81L0.41,-0.81L0.41,-0.689L0.239,-0.689L0.239,-0.485L0.388,-0.485L0.388,-0.36L0.239,-0.36L0.239,-0L0.06,-0Z" style="fill:rgb(29,78,216);fill-rule:nonzero;"/>
                </g>
                <g transform="matrix(1,0,0,1,53.329,101.496)">
                    <g transform="matrix(138.633,0,0,138.633,0,0)">
                        <path d="M0.021,-0L0.174,-0.81L0.378,-0.81L0.529,-0L0.364,-0L0.337,-0.171L0.218,-0.171L0.19,-0L0.021,-0ZM0.234,-0.278L0.32,-0.278L0.277,-0.594L0.234,-0.278Z" style="fill:rgb(29,78,216);fill-rule:nonzero;"/>
                    </g>
                    <g transform="matrix(138.633,0,0,138.633,68.2074,0)">
                        <path d="M0.06,-0L0.06,-0.81L0.239,-0.81L0.239,-0.479L0.375,-0.81L0.55,-0.81L0.4,-0.444L0.557,-0L0.375,-0L0.258,-0.358L0.239,-0.326L0.239,-0L0.06,-0Z" style="fill:rgb(29,78,216);fill-rule:nonzero;"/>
                    </g>
                </g>
            </g>
            <g transform="matrix(2.63812,0,0,7.7877,514.964,889.056)">
                <g transform="matrix(138.633,0,0,138.633,0,0)">
                    <path d="M0.133,-0L0.133,-0.677L0.011,-0.677L0.011,-0.81L0.434,-0.81L0.434,-0.677L0.313,-0.677L0.313,-0L0.133,-0Z" style="fill:rgb(29,78,216);fill-rule:nonzero;"/>
                </g>
                <g transform="matrix(138.633,0,0,138.633,57.2554,0)">
                    <path d="M0.292,0.012C0.231,0.012 0.183,0.001 0.148,-0.02C0.113,-0.041 0.087,-0.072 0.072,-0.112C0.057,-0.152 0.049,-0.2 0.049,-0.255L0.049,-0.556C0.049,-0.612 0.057,-0.66 0.072,-0.699C0.087,-0.738 0.113,-0.769 0.148,-0.79C0.183,-0.811 0.231,-0.821 0.292,-0.821C0.353,-0.821 0.402,-0.811 0.438,-0.79C0.473,-0.769 0.499,-0.738 0.514,-0.699C0.529,-0.66 0.537,-0.612 0.537,-0.556L0.537,-0.255C0.537,-0.2 0.529,-0.152 0.514,-0.112C0.499,-0.072 0.473,-0.041 0.438,-0.02C0.402,0.001 0.353,0.012 0.292,0.012ZM0.292,-0.115C0.311,-0.115 0.324,-0.12 0.333,-0.129C0.342,-0.138 0.347,-0.15 0.35,-0.165C0.353,-0.18 0.354,-0.195 0.354,-0.21L0.354,-0.6C0.354,-0.616 0.353,-0.631 0.35,-0.646C0.347,-0.66 0.342,-0.672 0.333,-0.681C0.324,-0.69 0.311,-0.695 0.292,-0.695C0.275,-0.695 0.262,-0.69 0.253,-0.681C0.244,-0.672 0.239,-0.66 0.236,-0.646C0.233,-0.631 0.232,-0.616 0.232,-0.6L0.232,-0.21C0.232,-0.195 0.233,-0.18 0.236,-0.165C0.238,-0.15 0.243,-0.138 0.252,-0.129C0.26,-0.12 0.273,-0.115 0.292,-0.115Z" style="fill:rgb(29,78,216);fill-rule:nonzero;"/>
                </g>
                <g transform="matrix(138.633,0,0,138.633,131.979,0)">
                    <path d="M0.06,-0L0.06,-0.81L0.283,-0.81C0.338,-0.81 0.385,-0.804 0.425,-0.792C0.465,-0.78 0.496,-0.759 0.519,-0.728C0.541,-0.697 0.552,-0.653 0.552,-0.596C0.552,-0.563 0.549,-0.533 0.544,-0.507C0.539,-0.481 0.529,-0.459 0.515,-0.44C0.5,-0.421 0.48,-0.405 0.453,-0.392L0.564,-0L0.379,-0L0.29,-0.363L0.239,-0.363L0.239,-0L0.06,-0ZM0.239,-0.466L0.289,-0.466C0.314,-0.466 0.334,-0.471 0.348,-0.48C0.362,-0.489 0.372,-0.501 0.378,-0.519C0.383,-0.536 0.386,-0.556 0.386,-0.58C0.386,-0.615 0.38,-0.642 0.367,-0.661C0.354,-0.68 0.331,-0.69 0.297,-0.69L0.239,-0.69L0.239,-0.466Z" style="fill:rgb(29,78,216);fill-rule:nonzero;"/>
                </g>
            </g>
            <g transform="matrix(2.63812,0,0,7.7877,1237.13,889.056)">
                <g transform="matrix(138.633,0,0,138.633,0,0)">
                    <path d="M0.057,-0L0.054,-0.81L0.263,-0.81L0.352,-0.339L0.448,-0.81L0.655,-0.81L0.651,0L0.503,0L0.505,-0.42L0.411,-0L0.298,-0L0.198,-0.424L0.203,0L0.057,-0Z" style="fill:rgb(29,78,216);fill-rule:nonzero;"/>
                </g>
                <g transform="matrix(138.633,0,0,138.633,91.4978,0)">
                    <path d="M0.06,-0L0.06,-0.81L0.424,-0.81L0.424,-0.688L0.239,-0.688L0.239,-0.487L0.38,-0.487L0.38,-0.363L0.239,-0.363L0.239,-0.121L0.426,-0.121L0.426,-0L0.06,-0Z" style="fill:rgb(29,78,216);fill-rule:nonzero;"/>
                </g>
                <g transform="matrix(138.633,0,0,138.633,147.921,0)">
                    <path d="M0.06,-0L0.06,-0.81L0.186,-0.81L0.352,-0.42L0.352,-0.81L0.5,-0.81L0.5,-0L0.379,-0L0.213,-0.42L0.213,-0L0.06,-0Z" style="fill:rgb(29,78,216);fill-rule:nonzero;"/>
                </g>
                <g transform="matrix(138.633,0,0,138.633,221.12,0)">
                    <path d="M0.275,0.012C0.224,0.012 0.182,0.003 0.148,-0.015C0.114,-0.033 0.088,-0.061 0.071,-0.099C0.054,-0.136 0.044,-0.185 0.042,-0.245L0.195,-0.246C0.197,-0.221 0.2,-0.206 0.205,-0.184C0.21,-0.163 0.218,-0.147 0.229,-0.138C0.239,-0.129 0.251,-0.124 0.266,-0.124C0.285,-0.124 0.297,-0.13 0.303,-0.143C0.308,-0.156 0.311,-0.169 0.311,-0.183C0.311,-0.216 0.303,-0.245 0.287,-0.268C0.271,-0.291 0.249,-0.314 0.222,-0.337L0.152,-0.398C0.121,-0.424 0.095,-0.454 0.075,-0.487C0.054,-0.52 0.043,-0.56 0.043,-0.609C0.043,-0.678 0.063,-0.73 0.104,-0.767C0.145,-0.803 0.2,-0.821 0.27,-0.821C0.313,-0.821 0.348,-0.814 0.375,-0.799C0.401,-0.784 0.421,-0.765 0.435,-0.742C0.448,-0.718 0.458,-0.693 0.463,-0.667C0.468,-0.64 0.47,-0.615 0.471,-0.591L0.317,-0.591C0.316,-0.605 0.314,-0.619 0.313,-0.635C0.31,-0.652 0.305,-0.666 0.298,-0.676C0.291,-0.685 0.279,-0.69 0.264,-0.69C0.247,-0.69 0.235,-0.683 0.228,-0.669C0.22,-0.655 0.216,-0.641 0.216,-0.627C0.216,-0.597 0.223,-0.572 0.238,-0.554C0.252,-0.535 0.271,-0.515 0.294,-0.494L0.361,-0.435C0.396,-0.405 0.426,-0.371 0.451,-0.333C0.475,-0.295 0.487,-0.248 0.487,-0.192C0.487,-0.154 0.478,-0.12 0.461,-0.089C0.444,-0.057 0.419,-0.033 0.388,-0.015C0.356,0.003 0.318,0.012 0.275,0.012Z" style="fill:rgb(29,78,216);fill-rule:nonzero;"/>
                </g>
                <g transform="matrix(138.633,0,0,138.633,286.693,0)">
                    <path d="M0.292,0.012C0.231,0.012 0.182,0.001 0.147,-0.022C0.111,-0.044 0.086,-0.075 0.071,-0.116C0.056,-0.156 0.049,-0.203 0.049,-0.258L0.049,-0.55C0.049,-0.606 0.056,-0.654 0.071,-0.695C0.086,-0.735 0.111,-0.766 0.147,-0.788C0.182,-0.81 0.231,-0.821 0.292,-0.821C0.352,-0.821 0.399,-0.811 0.433,-0.792C0.466,-0.772 0.49,-0.744 0.504,-0.709C0.518,-0.674 0.525,-0.633 0.525,-0.587L0.525,-0.517L0.35,-0.517L0.35,-0.598C0.35,-0.614 0.349,-0.629 0.348,-0.644C0.346,-0.659 0.341,-0.671 0.333,-0.681C0.325,-0.69 0.311,-0.695 0.292,-0.695C0.273,-0.695 0.26,-0.69 0.251,-0.68C0.242,-0.67 0.236,-0.658 0.234,-0.643C0.231,-0.627 0.23,-0.612 0.23,-0.595L0.23,-0.214C0.23,-0.196 0.232,-0.18 0.235,-0.165C0.238,-0.15 0.244,-0.138 0.253,-0.129C0.262,-0.12 0.275,-0.115 0.292,-0.115C0.311,-0.115 0.324,-0.12 0.332,-0.13C0.34,-0.139 0.345,-0.152 0.347,-0.167C0.349,-0.182 0.35,-0.198 0.35,-0.214L0.35,-0.299L0.525,-0.299L0.525,-0.229C0.525,-0.183 0.518,-0.142 0.505,-0.106C0.491,-0.069 0.467,-0.041 0.434,-0.02C0.4,0.002 0.353,0.012 0.292,0.012Z" style="fill:rgb(29,78,216);fill-rule:nonzero;"/>
                </g>
                <g transform="matrix(138.633,0,0,138.633,358.089,0)">
                    <path d="M0.063,-0L0.063,-0.81L0.242,-0.81L0.242,-0.482L0.367,-0.482L0.367,-0.81L0.547,-0.81L0.547,-0L0.367,-0L0.367,-0.354L0.242,-0.354L0.242,-0L0.063,-0Z" style="fill:rgb(29,78,216);fill-rule:nonzero;"/>
                </g>
            </g>
            <g transform="matrix(1.78637,-4.86068,2.54415,6.92257,368.259,1828.36)">
                <rect x="349.596" y="33.482" width="16.885" height="51.194" style="fill:rgb(232,136,19);"/>
            </g>
            <g transform="matrix(1.78637,4.86068,-2.54415,6.92257,668.871,-1652.26)">
                <rect x="349.596" y="33.482" width="16.885" height="51.194" style="fill:rgb(232,136,19);"/>
            </g>
            <g transform="matrix(1.33966,0,0,3.64519,-335.151,65.5902)">
                <g transform="matrix(216.998,0,0,216.998,242.49,435.531)">
                    <path d="M0.061,-0L0.061,-0.81L0.209,-0.81L0.209,-0.102L0.405,-0.102L0.405,-0L0.061,-0Z" style="fill:rgb(29,78,216);fill-rule:nonzero;"/>
                </g>
                <g transform="matrix(216.998,0,0,216.998,327.337,435.531)">
                    <path d="M0.281,0.011C0.224,0.011 0.178,-0 0.144,-0.021C0.11,-0.043 0.085,-0.073 0.071,-0.113C0.056,-0.153 0.049,-0.2 0.049,-0.255L0.049,-0.558C0.049,-0.613 0.056,-0.66 0.071,-0.699C0.086,-0.738 0.11,-0.767 0.144,-0.788C0.178,-0.809 0.224,-0.819 0.281,-0.819C0.339,-0.819 0.385,-0.809 0.419,-0.788C0.453,-0.767 0.478,-0.737 0.492,-0.699C0.507,-0.66 0.515,-0.613 0.515,-0.558L0.515,-0.254C0.515,-0.2 0.507,-0.153 0.492,-0.113C0.478,-0.074 0.453,-0.043 0.419,-0.022C0.385,-0 0.339,0.011 0.281,0.011ZM0.281,-0.098C0.306,-0.098 0.324,-0.103 0.335,-0.114C0.347,-0.125 0.355,-0.14 0.359,-0.158C0.363,-0.176 0.365,-0.197 0.365,-0.219L0.365,-0.592C0.365,-0.615 0.363,-0.635 0.359,-0.653C0.355,-0.671 0.347,-0.685 0.335,-0.696C0.324,-0.706 0.306,-0.711 0.281,-0.711C0.258,-0.711 0.24,-0.706 0.228,-0.696C0.216,-0.685 0.208,-0.671 0.204,-0.653C0.2,-0.635 0.198,-0.615 0.198,-0.592L0.198,-0.219C0.198,-0.197 0.2,-0.176 0.204,-0.158C0.208,-0.14 0.215,-0.125 0.227,-0.114C0.239,-0.103 0.257,-0.098 0.281,-0.098Z" style="fill:rgb(29,78,216);fill-rule:nonzero;"/>
                </g>
                <g transform="matrix(216.998,0,0,216.998,444.299,435.531)">
                    <path d="M0.281,0.011C0.224,0.011 0.178,-0 0.144,-0.021C0.11,-0.043 0.085,-0.073 0.071,-0.113C0.056,-0.153 0.049,-0.2 0.049,-0.255L0.049,-0.558C0.049,-0.613 0.056,-0.66 0.071,-0.699C0.086,-0.738 0.11,-0.767 0.144,-0.788C0.178,-0.809 0.224,-0.819 0.281,-0.819C0.339,-0.819 0.385,-0.809 0.419,-0.788C0.453,-0.767 0.478,-0.737 0.492,-0.699C0.507,-0.66 0.515,-0.613 0.515,-0.558L0.515,-0.254C0.515,-0.2 0.507,-0.153 0.492,-0.113C0.478,-0.074 0.453,-0.043 0.419,-0.022C0.385,-0 0.339,0.011 0.281,0.011ZM0.281,-0.098C0.306,-0.098 0.324,-0.103 0.335,-0.114C0.347,-0.125 0.355,-0.14 0.359,-0.158C0.363,-0.176 0.365,-0.197 0.365,-0.219L0.365,-0.592C0.365,-0.615 0.363,-0.635 0.359,-0.653C0.355,-0.671 0.347,-0.685 0.335,-0.696C0.324,-0.706 0.306,-0.711 0.281,-0.711C0.258,-0.711 0.24,-0.706 0.228,-0.696C0.216,-0.685 0.208,-0.671 0.204,-0.653C0.2,-0.635 0.198,-0.615 0.198,-0.592L0.198,-0.219C0.198,-0.197 0.2,-0.176 0.204,-0.158C0.208,-0.14 0.215,-0.125 0.227,-0.114C0.239,-0.103 0.257,-0.098 0.281,-0.098Z" style="fill:rgb(29,78,216);fill-rule:nonzero;"/>
                </g>
                <g transform="matrix(216.998,0,0,216.998,561.261,435.531)">
                    <path d="M0.061,-0L0.061,-0.81L0.209,-0.81L0.209,-0.454L0.369,-0.81L0.51,-0.81L0.355,-0.448L0.526,-0L0.379,-0L0.243,-0.369L0.209,-0.307L0.209,-0L0.061,-0Z" style="fill:rgb(29,78,216);fill-rule:nonzero;"/>
                </g>
                <g transform="matrix(216.998,0,0,216.998,674.931,435.531)">
                    <rect x="0.047" y="-0.137" width="0.131" height="0.137" style="fill:rgb(29,78,216);"/>
                </g>
                <g transform="matrix(216.998,0,0,216.998,759.163,435.531)">
                    <path d="M0.142,-0L0.142,-0.701L0.013,-0.701L0.013,-0.81L0.417,-0.81L0.417,-0.701L0.29,-0.701L0.29,-0L0.142,-0Z" style="fill:rgb(29,78,216);fill-rule:nonzero;"/>
                </g>
                <g transform="matrix(216.998,0,0,216.998,848.783,435.531)">
                    <path d="M0.063,-0L0.063,-0.81L0.21,-0.81L0.21,-0.471L0.375,-0.471L0.375,-0.81L0.523,-0.81L0.523,-0L0.375,-0L0.375,-0.366L0.21,-0.366L0.21,-0L0.063,-0Z" style="fill:rgb(29,78,216);fill-rule:nonzero;"/>
                </g>
                <g transform="matrix(216.998,0,0,216.998,970.519,435.531)">
                    <rect x="0.065" y="-0.81" width="0.146" height="0.81" style="fill:rgb(29,78,216);"/>
                </g>
                <g transform="matrix(216.998,0,0,216.998,1024.34,435.531)">
                    <path d="M0.061,-0L0.061,-0.81L0.164,-0.81L0.361,-0.348L0.361,-0.81L0.483,-0.81L0.483,-0L0.385,-0L0.187,-0.484L0.187,-0L0.061,-0Z" style="fill:rgb(29,78,216);fill-rule:nonzero;"/>
                </g>
                <g transform="matrix(216.998,0,0,216.998,1138.91,435.531)">
                    <path d="M0.061,-0L0.061,-0.81L0.209,-0.81L0.209,-0.454L0.369,-0.81L0.51,-0.81L0.355,-0.448L0.526,-0L0.379,-0L0.243,-0.369L0.209,-0.307L0.209,-0L0.061,-0Z" style="fill:rgb(29,78,216);fill-rule:nonzero;"/>
                </g>
                <g transform="matrix(216.998,0,0,216.998,1253.36,435.531)">
                    <rect x="0.047" y="-0.137" width="0.131" height="0.137" style="fill:rgb(29,78,216);"/>
                </g>
                <g transform="matrix(216.998,0,0,216.998,1336.81,435.531)">
                    <path d="M0.061,-0L0.061,-0.81L0.252,-0.81C0.318,-0.81 0.369,-0.801 0.407,-0.783C0.444,-0.765 0.47,-0.737 0.486,-0.7C0.501,-0.663 0.509,-0.616 0.509,-0.558L0.509,-0.262C0.509,-0.203 0.501,-0.154 0.486,-0.116C0.47,-0.077 0.444,-0.048 0.408,-0.029C0.371,-0.01 0.321,-0 0.258,-0L0.061,-0ZM0.209,-0.103L0.254,-0.103C0.288,-0.103 0.312,-0.109 0.327,-0.121C0.342,-0.133 0.351,-0.15 0.354,-0.173C0.357,-0.197 0.359,-0.225 0.359,-0.258L0.359,-0.568C0.359,-0.6 0.357,-0.627 0.352,-0.647C0.348,-0.667 0.338,-0.682 0.323,-0.691C0.308,-0.7 0.284,-0.705 0.252,-0.705L0.209,-0.705L0.209,-0.103Z" style="fill:rgb(29,78,216);fill-rule:nonzero;"/>
                </g>
                <g transform="matrix(216.998,0,0,216.998,1451.17,435.531)">
                    <path d="M0.061,-0L0.061,-0.81L0.401,-0.81L0.401,-0.706L0.209,-0.706L0.209,-0.473L0.36,-0.473L0.36,-0.37L0.209,-0.37L0.209,-0.102L0.403,-0.102L0.403,-0L0.061,-0Z" style="fill:rgb(29,78,216);fill-rule:nonzero;"/>
                </g>
                <g transform="matrix(216.998,0,0,216.998,1539.49,435.531)">
                    <path d="M0.061,-0L0.061,-0.81L0.209,-0.81L0.209,-0.102L0.405,-0.102L0.405,-0L0.061,-0Z" style="fill:rgb(29,78,216);fill-rule:nonzero;"/>
                </g>
                <g transform="matrix(216.998,0,0,216.998,1625.64,435.531)">
                    <rect x="0.065" y="-0.81" width="0.146" height="0.81" style="fill:rgb(29,78,216);"/>
                </g>
                <g transform="matrix(216.998,0,0,216.998,1679.45,435.531)">
                    <path d="M0.185,-0L0.022,-0.81L0.153,-0.81L0.26,-0.237L0.36,-0.81L0.494,-0.81L0.331,-0L0.185,-0Z" style="fill:rgb(29,78,216);fill-rule:nonzero;"/>
                </g>
                <g transform="matrix(216.998,0,0,216.998,1789.04,435.531)">
                    <path d="M0.061,-0L0.061,-0.81L0.401,-0.81L0.401,-0.706L0.209,-0.706L0.209,-0.473L0.36,-0.473L0.36,-0.37L0.209,-0.37L0.209,-0.102L0.403,-0.102L0.403,-0L0.061,-0Z" style="fill:rgb(29,78,216);fill-rule:nonzero;"/>
                </g>
                <g transform="matrix(216.998,0,0,216.998,1877.36,435.531)">
                    <path d="M0.061,-0L0.061,-0.81L0.255,-0.81C0.31,-0.81 0.356,-0.803 0.394,-0.79C0.431,-0.777 0.46,-0.755 0.48,-0.724C0.5,-0.692 0.509,-0.65 0.509,-0.596C0.509,-0.563 0.506,-0.534 0.5,-0.508C0.494,-0.482 0.484,-0.46 0.47,-0.442C0.455,-0.424 0.435,-0.409 0.41,-0.399L0.523,-0L0.375,-0L0.277,-0.371L0.209,-0.371L0.209,-0L0.061,-0ZM0.209,-0.464L0.255,-0.464C0.284,-0.464 0.306,-0.468 0.323,-0.476C0.34,-0.485 0.352,-0.498 0.36,-0.516C0.367,-0.534 0.371,-0.558 0.371,-0.587C0.371,-0.628 0.364,-0.659 0.349,-0.679C0.334,-0.699 0.305,-0.709 0.263,-0.709L0.209,-0.709L0.209,-0.464Z" style="fill:rgb(29,78,216);fill-rule:nonzero;"/>
                </g>
                <g transform="matrix(216.998,0,0,216.998,1989.69,435.531)">
                    <rect x="0.047" y="-0.137" width="0.131" height="0.137" style="fill:rgb(29,78,216);"/>
                </g>
            </g>
        </g>
    </g>
</svg>
